<?xml version="1.0" standalone="no"?>
<!DOCTYPE svg PUBLIC "-//W3C//DTD SVG 20010904//EN"
 "http://www.w3.org/TR/2001/REC-SVG-20010904/DTD/svg10.dtd">
<svg version="1.0" xmlns="http://www.w3.org/2000/svg"
 width="498.000000pt" height="347.000000pt" viewBox="0 0 498.000000 347.000000"
 preserveAspectRatio="xMidYMid meet">

<g transform="translate(0.000000,347.000000) scale(0.100000,-0.100000)"
fill="#000000" stroke="none">
<path d="M0 3305 l0 -165 2490 0 2490 0 0 165 0 165 -2490 0 -2490 0 0 -165z
m4372 57 c-2 -16 3 -21 23 -24 14 -2 25 -7 24 -12 0 -5 4 -12 9 -15 9 -5 16
-46 13 -80 -1 -8 -13 -2 -32 17 -21 20 -29 37 -25 47 4 11 2 15 -6 13 -7 -3
-15 -15 -18 -28 -9 -38 -31 -38 -23 0 4 22 2 35 -8 40 -11 7 -10 10 4 16 10 3
17 17 17 31 0 15 5 23 13 20 6 -2 11 -13 9 -25z m118 -8 c0 -17 5 -24 20 -24
11 0 20 -7 20 -15 0 -8 -9 -15 -20 -15 -16 0 -20 -7 -20 -30 0 -20 -5 -30 -15
-30 -10 0 -15 10 -15 29 0 17 -5 33 -11 37 -8 4 -8 9 0 17 6 6 11 21 11 32 0
12 3 25 6 28 12 11 24 -3 24 -29z m-249 16 c25 -14 25 -50 -1 -57 -15 -4 -18
-11 -13 -35 5 -24 3 -30 -8 -26 -18 6 -29 75 -18 105 10 26 13 27 40 13z m589
-11 c0 -5 -7 -9 -15 -9 -15 0 -20 12 -9 23 8 8 24 -1 24 -14z m-97 -14 c4 8
11 15 18 15 7 0 8 -6 3 -17 -4 -10 -8 -38 -9 -63 0 -54 -19 -70 -23 -21 -2 19
-10 44 -18 55 -8 11 -14 27 -14 35 0 11 4 11 19 -3 16 -15 19 -15 24 -1z m87
-56 c0 -10 -7 -19 -15 -19 -15 0 -21 31 -9 43 11 10 24 -3 24 -24z m-505 -9
c0 -18 -6 -26 -23 -28 -13 -2 -25 3 -28 12 -10 26 4 48 28 44 17 -2 23 -10 23
-28z m273 -3 c4 -21 -26 -59 -40 -51 -14 9 -29 54 -22 65 10 17 59 6 62 -14z
m89 -4 c5 -14 -49 -24 -64 -11 -7 6 -11 13 -9 17 7 10 70 5 73 -6z"/>
<path d="M2240 2500 c-119 -3 -220 -9 -226 -12 -5 -4 -73 -14 -150 -22 -169
-19 -516 -94 -599 -130 -240 -105 -397 -224 -477 -362 -61 -107 -82 -191 -82
-339 -1 -138 0 -140 69 -305 54 -128 248 -370 340 -424 28 -17 60 -49 86 -87
45 -67 104 -115 158 -128 151 -36 329 -64 421 -66 131 -2 164 5 205 45 l32 31
89 -15 c403 -69 810 -93 1082 -66 280 28 559 122 732 245 25 18 73 46 108 64
58 29 144 89 216 151 38 34 111 160 137 238 19 57 21 80 17 191 -5 114 -9 135
-42 222 -68 181 -184 327 -401 505 -69 58 -211 121 -330 149 -175 40 -298 64
-355 69 -77 7 -194 24 -265 37 -70 13 -455 17 -765 9z m735 -34 c55 -8 161
-22 235 -31 74 -9 162 -22 195 -30 33 -7 96 -21 140 -30 44 -10 103 -23 130
-30 184 -47 422 -235 557 -439 75 -113 81 -125 113 -224 23 -70 26 -99 26
-200 0 -64 -4 -130 -9 -147 -18 -58 -72 -161 -109 -205 -48 -59 -183 -160
-258 -194 -33 -15 -66 -33 -75 -40 -8 -8 -60 -40 -114 -71 -261 -150 -622
-212 -1089 -186 -122 6 -240 16 -262 21 -22 5 -104 16 -183 25 -149 16 -259
40 -375 81 -38 13 -77 24 -88 24 -28 0 -225 78 -274 108 -57 35 -94 71 -116
114 -10 21 -19 39 -19 41 0 3 35 -13 78 -34 88 -44 161 -55 260 -41 l64 9 21
-44 c18 -36 19 -46 8 -52 -7 -5 -10 -14 -7 -20 4 -6 12 -8 18 -5 5 4 28 1 49
-6 27 -9 51 -10 80 -4 49 11 68 38 23 32 l-29 -3 -3 74 c-4 93 9 114 80 135
93 28 180 46 188 41 11 -7 61 -161 58 -177 -2 -7 4 -11 12 -9 8 2 34 5 57 5
27 1 49 8 60 20 17 18 17 18 -5 13 -23 -5 -23 -4 -20 81 3 81 4 87 23 84 11
-2 111 -6 223 -9 221 -6 319 2 482 42 144 35 200 58 348 140 153 85 191 117
262 222 53 79 67 132 56 206 -9 60 -52 143 -86 167 -43 31 -44 8 -2 -37 44
-46 62 -98 62 -179 l0 -59 -19 31 c-78 128 -192 175 -655 270 -343 70 -765 59
-1248 -32 -194 -36 -273 -69 -350 -142 -37 -35 -38 -36 -38 -12 0 37 43 122
84 168 34 38 45 62 28 62 -15 0 -88 -96 -114 -152 -31 -64 -33 -88 -14 -133
12 -29 12 -30 -30 -55 -60 -35 -171 -136 -190 -172 -24 -47 -54 -172 -44 -182
11 -11 27 27 36 83 16 100 118 204 279 284 140 70 274 83 420 41 40 -11 105
-53 153 -99 2 -2 -6 -13 -17 -24 -22 -22 -28 -70 -11 -100 5 -10 31 -27 57
-39 48 -20 77 -20 149 3 13 4 25 1 34 -9 7 -9 36 -23 65 -31 60 -18 121 -69
131 -110 5 -20 1 -39 -12 -64 -18 -34 -22 -36 -89 -44 -85 -10 -253 -43 -318
-64 -27 -8 -76 -32 -111 -53 -162 -99 -397 -91 -521 18 -28 25 -30 30 -16 39
14 9 12 12 -12 18 -20 5 -33 3 -47 -10 -26 -23 -25 -35 1 -32 17 2 24 -6 33
-38 20 -65 53 -120 88 -150 37 -32 160 -91 258 -125 36 -13 77 -29 92 -36 15
-8 40 -14 56 -14 16 0 50 -7 77 -17 l48 -16 -33 -30 -33 -29 -146 5 c-102 3
-187 13 -282 32 -182 36 -217 56 -294 170 -39 57 -63 84 -73 80 -47 -18 -285
278 -349 435 -44 109 -57 174 -55 273 2 137 44 271 116 371 68 94 245 220 381
271 28 10 60 25 72 33 41 26 371 95 587 123 246 33 266 34 641 37 281 3 370 1
450 -12z m-215 -510 c165 -5 277 -22 527 -81 274 -63 373 -112 430 -209 21
-36 14 -72 -26 -132 -57 -85 -91 -112 -236 -191 -221 -119 -416 -169 -685
-176 -91 -2 -202 -2 -247 1 l-82 5 24 29 c18 21 25 41 25 72 0 61 -59 127
-133 152 -58 18 -90 41 -80 57 11 19 4 69 -13 88 -26 29 -98 52 -143 46 -33
-4 -43 -1 -63 20 -76 81 -196 118 -362 111 -83 -4 -112 -10 -164 -33 -34 -15
-65 -25 -68 -22 -12 11 43 70 96 103 30 19 83 43 117 54 194 60 646 120 858
113 39 -1 140 -4 225 -7z m-553 -376 c25 -11 48 -30 55 -45 10 -23 9 -29 -14
-52 -35 -34 -110 -43 -161 -18 -60 28 -63 89 -5 117 44 22 74 22 125 -2z m165
-430 c2 -5 2 -46 0 -90 l-4 -80 -29 0 c-16 0 -29 1 -29 3 0 1 -13 39 -28 84
-32 92 -33 90 45 92 23 0 43 -3 45 -9z m-428 -194 c1 -92 -1 -96 -50 -74 -16
8 -35 30 -47 58 -12 25 -23 48 -24 51 -2 3 14 11 34 17 21 6 47 18 58 26 11 8
22 13 24 11 2 -2 4 -42 5 -89z"/>
<path d="M1652 1533 c-12 -3 -41 -21 -62 -42 -35 -33 -40 -44 -40 -83 0 -35 6
-49 28 -70 36 -35 68 -42 149 -33 58 6 72 12 100 40 25 25 33 41 33 70 0 94
-84 142 -208 118z m161 -53 c36 -40 36 -83 -1 -119 -23 -24 -38 -29 -101 -34
-105 -9 -141 12 -141 82 0 96 173 147 243 71z"/>
<path d="M1662 1448 c-35 -35 11 -82 54 -53 27 18 32 50 8 59 -25 9 -49 7 -62
-6z"/>
<path d="M2145 1299 c-8 -13 23 -49 42 -49 23 0 27 30 7 45 -23 17 -40 19 -49
4z"/>
<path d="M1947 1253 c-4 -3 -7 -17 -7 -30 0 -25 21 -39 45 -30 11 5 12 12 4
37 -10 28 -28 38 -42 23z"/>
<path d="M2165 1550 c-4 -7 0 -19 9 -28 13 -13 20 -14 34 -6 9 6 17 17 17 25
0 17 -50 24 -60 9z"/>
</g>
</svg>
